<mxfile host="app.diagrams.net" agent="Mozilla/5.0 (X11; Linux x86_64; rv:143.0) Gecko/20100101 Firefox/143.0" version="28.2.5">
  <diagram name="Page-1" id="gKcojqteki12ZWJ6jAoS">
    <mxGraphModel dx="1406" dy="769" grid="1" gridSize="10" guides="1" tooltips="1" connect="1" arrows="1" fold="1" page="1" pageScale="1" pageWidth="850" pageHeight="1100" math="0" shadow="0">
      <root>
        <mxCell id="0" />
        <mxCell id="1" parent="0" />
        <mxCell id="EdtFqjOGxqUaZ6WieqIo-1" value="" style="ellipse;html=1;shape=startState;fillColor=#000000;strokeColor=#ff0000;" parent="1" vertex="1">
          <mxGeometry x="375" y="210" width="30" height="30" as="geometry" />
        </mxCell>
        <mxCell id="EdtFqjOGxqUaZ6WieqIo-2" value="Registrar candidatos" style="edgeStyle=orthogonalEdgeStyle;html=1;verticalAlign=bottom;endArrow=open;endSize=8;strokeColor=#ff0000;rounded=0;entryX=0.5;entryY=0;entryDx=0;entryDy=0;" parent="1" source="EdtFqjOGxqUaZ6WieqIo-1" target="EdtFqjOGxqUaZ6WieqIo-6" edge="1">
          <mxGeometry relative="1" as="geometry">
            <mxPoint x="390" y="300" as="targetPoint" />
          </mxGeometry>
        </mxCell>
        <mxCell id="EdtFqjOGxqUaZ6WieqIo-6" value="Salvando candidatos" style="swimlane;fontStyle=1;align=center;verticalAlign=middle;childLayout=stackLayout;horizontal=1;startSize=30;horizontalStack=0;resizeParent=0;resizeLast=1;container=0;fontColor=#000000;collapsible=0;rounded=1;arcSize=30;strokeColor=#ff0000;fillColor=#ffffc0;swimlaneFillColor=#ffffc0;dropTarget=0;" parent="1" vertex="1">
          <mxGeometry x="310" y="320" width="160" height="60" as="geometry" />
        </mxCell>
        <mxCell id="EdtFqjOGxqUaZ6WieqIo-7" value="do / salvarCandidatos()" style="text;html=1;strokeColor=none;fillColor=none;align=center;verticalAlign=middle;spacingLeft=4;spacingRight=4;whiteSpace=wrap;overflow=hidden;rotatable=0;fontColor=#000000;" parent="EdtFqjOGxqUaZ6WieqIo-6" vertex="1">
          <mxGeometry y="30" width="160" height="30" as="geometry" />
        </mxCell>
        <mxCell id="EdtFqjOGxqUaZ6WieqIo-8" value="" style="edgeStyle=orthogonalEdgeStyle;html=1;verticalAlign=bottom;endArrow=open;endSize=8;strokeColor=#ff0000;rounded=0;entryX=0.5;entryY=0;entryDx=0;entryDy=0;" parent="1" source="EdtFqjOGxqUaZ6WieqIo-6" target="EdtFqjOGxqUaZ6WieqIo-9" edge="1">
          <mxGeometry relative="1" as="geometry">
            <mxPoint x="390" y="420" as="targetPoint" />
          </mxGeometry>
        </mxCell>
        <mxCell id="EdtFqjOGxqUaZ6WieqIo-9" value="" style="ellipse;html=1;shape=endState;fillColor=#000000;strokeColor=#ff0000;" parent="1" vertex="1">
          <mxGeometry x="375" y="450" width="30" height="30" as="geometry" />
        </mxCell>
        <mxCell id="EdtFqjOGxqUaZ6WieqIo-11" value="Classe UEg - Salvando candidatos na UEg" style="rounded=0;whiteSpace=wrap;html=1;fillColor=none;verticalAlign=bottom;labelPosition=center;verticalLabelPosition=top;align=center;" parent="1" vertex="1">
          <mxGeometry x="180" y="135" width="430" height="430" as="geometry" />
        </mxCell>
      </root>
    </mxGraphModel>
  </diagram>
</mxfile>
